<svg width="74" height="74" viewBox="0 0 74 74" fill="none" xmlns="http://www.w3.org/2000/svg">
<path d="M37.0002 24.3262L33.701 30.0612C32.961 31.3253 33.5777 32.3737 35.0269 32.3737H38.9427C40.4227 32.3737 41.0085 33.422 40.2685 34.6862L37.0002 40.4212" stroke="white" stroke-width="4.625" stroke-linecap="round" stroke-linejoin="round"/>
<path d="M25.591 55.6236V52.0469C18.4994 47.761 12.6719 39.4052 12.6719 30.5252C12.6719 15.2627 26.701 3.29938 42.5494 6.75272C49.5177 8.29438 55.6227 12.9194 58.7985 19.3019C65.2427 32.2519 58.4594 46.0036 48.5002 52.0161V55.5927C48.5002 56.4869 48.8394 58.5527 45.5402 58.5527H28.551C25.1594 58.5836 25.591 57.2577 25.591 55.6236Z" stroke="white" stroke-width="4.625" stroke-linecap="round" stroke-linejoin="round"/>
<path d="M26.209 67.8352C33.2698 65.831 40.7315 65.831 47.7923 67.8352" stroke="white" stroke-width="4.625" stroke-linecap="round" stroke-linejoin="round"/>
</svg>
